{"title":"Cher Lloyd Ft. Astro - Want U Back [Music Video] 720p [Sbyky]","uid":8996622,"size":48734075,"categoryP":"video","categoryS":"music_videos","magnet":"?xt=urn:btih:3d300247f45777e8e8b67489a287d83f87047af3&amp;dn=Cher+Lloyd+Ft.+Astro+-+Want+U+Back+%5BMusic+Video%5D+720p+%5BSbyky%5D&amp;tr=udp%3A%2F%2Ftracker.openbittorrent.com%3A80&amp;tr=udp%3A%2F%2Fopen.demonii.com%3A1337&amp;tr=udp%3A%2F%2Ftracker.coppersurfer.tk%3A6969&amp;tr=udp%3A%2F%2Fexodus.desync.com%3A6969","seeders":0,"leechers":1,"uploader":"Sbyky","files":1,"time":1380877973,"description":"[IMG]http://cdn.piczend.com/images/wm6K9UJ6/1380823892_wantuback.jpg[/IMG]\n\nGeneral\nComplete name                            : Cher Lloyd Ft. Astro - Want U Back [Music Video] 720p [Sbyky].MP4\nFormat                                   : MPEG-4\nFormat profile                           : Base Media / Version 2\nCodec ID                                 : mp42\nFile size                                : 46.5 MiB\nDuration                                 : 3mn 42s\nOverall bit rate mode                    : Variable\nOverall bit rate                         : 1 749 Kbps\nEncoded date                             : UTC 2012-01-04 16:29:26\nTagged date                              : UTC 2012-01-04 16:29:26\n\nVideo\nID                                       : 1\nFormat                                   : AVC\nFormat/Info                              : Advanced Video Codec\nFormat profile                           : &lt;a class=&quot;__cf_email__&quot; href=&quot;/cdn-cgi/l/email-protection&quot; data-cfemail=&quot;b0f8d9d7d8f0fc839e81&quot;&gt;[email&amp;#160;protected]&lt;/a&gt;&lt;script cf-hash='f9e31' type=&quot;text/javascript&quot;&gt;\n/* &lt;![CDATA[ */!function(){try{var t=&quot;currentScript&quot;in document?document.currentScript:function(){for(var t=document.getElementsByTagName(&quot;script&quot;),e=t.length;e--;)if(t[e].getAttribute(&quot;cf-hash&quot;))return t[e]}();if(t&amp;&amp;t.previousSibling){var e,r,n,i,c=t.previousSibling,a=c.getAttribute(&quot;data-cfemail&quot;);if(a){for(e=&quot;&quot;,r=parseInt(a.substr(0,2),16),n=2;a.length-n;n+=2)i=parseInt(a.substr(n,2),16)^r,e+=String.fromCharCode(i);e=document.createTextNode(e),c.parentNode.replaceChild(e,c)}}}catch(u){}}();/* ]]&gt; */&lt;/script&gt;\nFormat settings, CABAC                   : Yes\nFormat settings, ReFrames                : 1 frame\nCodec ID                                 : avc1\nCodec ID/Info                            : Advanced Video Coding\nDuration                                 : 3mn 42s\nBit rate                                 : 1 595 Kbps\nMaximum bit rate                         : 3 100 Kbps\nWidth                                    : 1 280 pixels\nHeight                                   : 720 pixels\nDisplay aspect ratio                     : 16:9\nFrame rate mode                          : Constant\nFrame rate                               : 23.976 fps\nColor space                              : YUV\nChroma subsampling                       : 4:2:0\nBit depth                                : 8 bits\nScan type                                : Progressive\nBits/(Pixel*Frame)                       : 0.072\nStream size                              : 42.4 MiB (91%)\nTagged date                              : UTC 2012-01-04 16:29:26\n\nAudio\nID                                       : 2\nFormat                                   : AAC\nFormat/Info                              : Advanced Audio Codec\nFormat profile                           : LC\nCodec ID                                 : 40\nDuration                                 : 3mn 42s\nBit rate mode                            : Variable\nBit rate                                 : 152 Kbps\nMaximum bit rate                         : 181 Kbps\nChannel(s)                               : 2 channels\nChannel positions                        : Front: L R\nSampling rate                            : 44.1 KHz\nCompression mode                         : Lossy\nStream size                              : 4.03 MiB (9%)\nTitle                                    : IsoMedia File Produced by Google, 5-11-2011\nEncoded date                             : UTC 2012-01-04 16:29:26\nTagged date                              : UTC 2012-01-04 16:29:26\n\nShared By Sbyky\n[IMG]http://cdn.piczend.com/images/X3Ag13N3/1379453786_saythanks.gif[/IMG]\n[IMG]http://cdn.piczend.com/images/gGqhX2S8/1379453780_keepseeding.gif[/IMG]","torrent":{"xt":"urn:btih:3d300247f45777e8e8b67489a287d83f87047af3","amp;dn":"Cher+Lloyd+Ft.+Astro+-+Want+U+Back+%5BMusic+Video%5D+720p+%5BSbyky%5D","amp;tr":["udp%3A%2F%2Ftracker.openbittorrent.com%3A80","udp%3A%2F%2Fopen.demonii.com%3A1337","udp%3A%2F%2Ftracker.coppersurfer.tk%3A6969","udp%3A%2F%2Fexodus.desync.com%3A6969"],"infoHash":"3d300247f45777e8e8b67489a287d83f87047af3","infoHashBuffer":{"type":"Buffer","data":[61,48,2,71,244,87,119,232,232,182,116,137,162,135,216,63,135,4,122,243]},"announce":[],"urlList":[]}}